<svg width="15" height="12" viewBox="0 0 15 12" fill="none" xmlns="http://www.w3.org/2000/svg">
<mask id="path-1-inside-1_17_14043" fill="white">
<path fill-rule="evenodd" clip-rule="evenodd" d="M7.16245 0.432132C7.58431 -0.0760983 8.3383 -0.146115 8.84653 0.275746C9.86299 1.11947 10.003 2.62744 9.1593 3.6439L9.01431 3.81858C8.90065 3.92714 8.82984 4.08019 8.82984 4.24977C8.82984 4.57903 9.09676 4.84595 9.42602 4.84595C9.45781 4.84595 9.48902 4.84346 9.51946 4.83867L9.52346 4.84595H13.2481C14.1262 4.84595 14.838 5.55774 14.838 6.43577C14.838 6.72534 14.7605 6.99683 14.6253 7.23068H14.626L14.6224 7.23555C14.5651 7.33388 14.4975 7.4255 14.4211 7.50895L12.3126 10.3721C11.5587 11.3958 10.3631 12.0001 9.09176 12.0001H6.94192L6.9371 12.0001H3.8418V4.43264L7.16245 0.432132Z"/>
</mask>
<path d="M8.84653 0.275746L8.20783 1.0452V1.04521L8.84653 0.275746ZM7.16245 0.432132L6.39299 -0.206563L6.39299 -0.206563L7.16245 0.432132ZM9.1593 3.6439L8.38984 3.00521V3.00521L9.1593 3.6439ZM9.01431 3.81858L9.70499 4.54174L9.74682 4.50179L9.78377 4.45727L9.01431 3.81858ZM9.51946 4.83867L10.3962 4.35766L10.0582 3.74156L9.36396 3.85084L9.51946 4.83867ZM9.52346 4.84595L8.64674 5.32696L8.93149 5.84595H9.52346V4.84595ZM14.6253 7.23068L13.7597 6.72995L12.8915 8.23067H14.6253V7.23068ZM14.626 7.23068L15.4313 7.82362L16.6043 6.23068H14.626V7.23068ZM14.6224 7.23555L13.8172 6.6426L13.7855 6.68561L13.7586 6.73175L14.6224 7.23555ZM14.4211 7.50895L13.6835 6.83371L13.6475 6.87303L13.6159 6.91596L14.4211 7.50895ZM12.3126 10.3721L13.1178 10.965L12.3126 10.3721ZM6.94192 12.0001L6.94093 13.0001H6.94192V12.0001ZM6.9371 12.0001L6.93809 11.0001H6.9371V12.0001ZM3.8418 12.0001H2.8418V13.0001H3.8418V12.0001ZM3.8418 4.43264L3.07234 3.79394L2.8418 4.07168V4.43264H3.8418ZM9.48522 -0.493714C8.55203 -1.26832 7.16759 -1.13975 6.39299 -0.206563L7.93191 1.07083C8.00103 0.987558 8.12456 0.976086 8.20783 1.0452L9.48522 -0.493714ZM9.92876 4.2826C11.1252 2.84118 10.9266 0.70275 9.48522 -0.493714L8.20783 1.04521C8.79933 1.53618 8.88082 2.41371 8.38984 3.00521L9.92876 4.2826ZM9.78377 4.45727L9.92876 4.2826L8.38984 3.00521L8.24485 3.17988L9.78377 4.45727ZM9.82984 4.24977C9.82984 4.36452 9.78067 4.46946 9.70499 4.54174L8.32363 3.09542C8.02062 3.38482 7.82984 3.79585 7.82984 4.24977H9.82984ZM9.42602 3.84595C9.64904 3.84595 9.82984 4.02675 9.82984 4.24977H7.82984C7.82984 5.13132 8.54447 5.84595 9.42602 5.84595V3.84595ZM9.36396 3.85084C9.38477 3.84756 9.40555 3.84595 9.42602 3.84595V5.84595C9.51007 5.84595 9.59326 5.83937 9.67496 5.82651L9.36396 3.85084ZM10.4002 4.36494L10.3962 4.35766L8.64275 5.31968L8.64674 5.32696L10.4002 4.36494ZM13.2481 3.84595H9.52346V5.84595H13.2481V3.84595ZM15.838 6.43577C15.838 5.00545 14.6785 3.84595 13.2481 3.84595V5.84595C13.5739 5.84595 13.838 6.11002 13.838 6.43577H15.838ZM15.4909 7.73141C15.7118 7.34946 15.838 6.90582 15.838 6.43577H13.838C13.838 6.54486 13.8093 6.64421 13.7597 6.72995L15.4909 7.73141ZM14.626 6.23068H14.6253V8.23067H14.626V6.23068ZM15.4277 7.8285L15.4313 7.82362L13.8208 6.63773L13.8172 6.6426L15.4277 7.8285ZM15.1587 8.18419C15.2828 8.0486 15.3928 7.89957 15.4863 7.73935L13.7586 6.73175C13.7374 6.7682 13.7122 6.80241 13.6835 6.83371L15.1587 8.18419ZM13.1178 10.965L15.2263 8.10194L13.6159 6.91596L11.5074 9.77907L13.1178 10.965ZM9.09176 13.0001C10.6809 13.0001 12.1755 12.2447 13.1178 10.965L11.5074 9.77907C10.942 10.5468 10.0453 11.0001 9.09176 11.0001V13.0001ZM6.94192 13.0001H9.09176V11.0001H6.94192V13.0001ZM6.93611 13.0001L6.94093 13.0001L6.94291 11.0001L6.93809 11.0001L6.93611 13.0001ZM3.8418 13.0001H6.9371V11.0001H3.8418V13.0001ZM2.8418 4.43264V12.0001H4.8418V4.43264H2.8418ZM6.39299 -0.206563L3.07234 3.79394L4.61126 5.07134L7.93191 1.07083L6.39299 -0.206563Z" fill="#8D9198" mask="url(#path-1-inside-1_17_14043)"/>
<path d="M0.5 6.44849C0.5 5.62006 1.17157 4.94849 2 4.94849H2.67963V11.5001H2C1.17157 11.5001 0.5 10.8285 0.5 10.0001V6.44849Z" stroke="#8D9198"/>
</svg>
