<svg width="52" height="41" viewBox="0 0 52 41" fill="none" xmlns="http://www.w3.org/2000/svg">
<mask id="path-1-inside-1_54_1103" fill="white">
<path fill-rule="evenodd" clip-rule="evenodd" d="M4.27411 12.0185C-1.42472 14.4279 -1.4247 22.5041 4.27414 24.9134L12.808 28.5214V33.2276C12.808 37.3041 16.1126 40.6088 20.1892 40.6088C23.7613 40.6088 26.7408 38.0713 27.4234 34.7005L31.3767 36.3719C35.9918 38.3231 41.1025 34.9351 41.1025 29.9245V7.00741C41.1025 1.99674 35.9918 -1.39125 31.3767 0.559968L4.27411 12.0185Z"/>
</mask>
<path fill-rule="evenodd" clip-rule="evenodd" d="M4.27411 12.0185C-1.42472 14.4279 -1.4247 22.5041 4.27414 24.9134L12.808 28.5214V33.2276C12.808 37.3041 16.1126 40.6088 20.1892 40.6088C23.7613 40.6088 26.7408 38.0713 27.4234 34.7005L31.3767 36.3719C35.9918 38.3231 41.1025 34.9351 41.1025 29.9245V7.00741C41.1025 1.99674 35.9918 -1.39125 31.3767 0.559968L4.27411 12.0185Z" fill="white"/>
<path d="M4.27414 24.9134L5.83178 21.2292H5.83178L4.27414 24.9134ZM4.27411 12.0185L5.83176 15.7028L4.27411 12.0185ZM12.808 28.5214H16.808V25.8697L14.3656 24.8371L12.808 28.5214ZM27.4234 34.7005L28.981 31.0163L24.4742 29.1108L23.503 33.9066L27.4234 34.7005ZM31.3767 36.3719L29.819 40.0562L29.819 40.0562L31.3767 36.3719ZM31.3767 0.559968L29.819 -3.12429L31.3767 0.559968ZM5.83178 21.2292C3.38941 20.1966 3.38942 16.7354 5.83176 15.7028L2.71646 8.33429C-6.23885 12.1205 -6.2388 24.8116 2.7165 28.5977L5.83178 21.2292ZM14.3656 24.8371L5.83178 21.2292L2.7165 28.5977L11.2503 32.2057L14.3656 24.8371ZM16.808 33.2276V28.5214H8.80797V33.2276H16.808ZM20.1892 36.6088C18.3218 36.6088 16.808 35.095 16.808 33.2276H8.80797C8.80797 39.5133 13.9035 44.6088 20.1892 44.6088V36.6088ZM23.503 33.9066C23.1906 35.449 21.8208 36.6088 20.1892 36.6088V44.6088C25.7017 44.6088 30.2909 40.6936 31.3438 35.4945L23.503 33.9066ZM32.9343 32.6877L28.981 31.0163L25.8657 38.3848L29.819 40.0562L32.9343 32.6877ZM37.1025 29.9245C37.1025 32.0719 34.9123 33.5239 32.9343 32.6877L29.819 40.0562C37.0714 43.1223 45.1025 37.7984 45.1025 29.9245H37.1025ZM37.1025 7.00741V29.9245H45.1025V7.00741H37.1025ZM32.9343 4.24422C34.9122 3.40799 37.1025 4.85998 37.1025 7.00741H45.1025C45.1025 -0.866502 37.0714 -6.19049 29.819 -3.12429L32.9343 4.24422ZM5.83176 15.7028L32.9343 4.24422L29.819 -3.12429L2.71646 8.33429L5.83176 15.7028Z" fill="#191A1F" mask="url(#path-1-inside-1_54_1103)"/>
<rect x="7.84033" y="22.1104" width="13.1221" height="4" rx="2" transform="rotate(22.7148 7.84033 22.1104)" fill="#191A1F"/>
<rect x="45.2612" y="21.3086" width="6.38009" height="4" rx="2" transform="rotate(14.2128 45.2612 21.3086)" fill="#191A1F"/>
<rect x="44.5303" y="15.3945" width="6.38009" height="4" rx="2" transform="rotate(-9.28827 44.5303 15.3945)" fill="#191A1F"/>
</svg>
