<svg width="11" height="13" viewBox="0 0 11 13" fill="none" xmlns="http://www.w3.org/2000/svg">
<mask id="path-1-inside-1_17_14057" fill="white">
<path fill-rule="evenodd" clip-rule="evenodd" d="M3 0C1.34315 0 0 1.34315 0 3V11.2166C0 12.0982 1.05807 12.5485 1.69337 11.9372L4.58875 9.15109C4.97593 8.77852 5.58832 8.77852 5.9755 9.15109L8.80662 11.8753C9.44193 12.4867 10.5 12.0364 10.5 11.1548V3C10.5 1.34315 9.15685 0 7.5 0H3Z"/>
</mask>
<path d="M8.80662 11.8753L8.11325 12.5959L8.80662 11.8753ZM4.58875 9.15109L3.89538 8.43051L4.58875 9.15109ZM1 3C1 1.89543 1.89543 1 3 1V-1C0.790861 -1 -1 0.790861 -1 3H1ZM1 11.2166V3H-1V11.2166H1ZM2.38675 12.6577L5.28212 9.87167L3.89538 8.43051L1 11.2166L2.38675 12.6577ZM5.28212 9.87166L8.11325 12.5959L9.5 11.1548L6.66888 8.43051L5.28212 9.87166ZM9.5 3V11.1548H11.5V3H9.5ZM7.5 1C8.60457 1 9.5 1.89543 9.5 3H11.5C11.5 0.790861 9.70914 -1 7.5 -1V1ZM3 1H7.5V-1H3V1ZM8.11325 12.5959C9.38386 13.8186 11.5 12.9181 11.5 11.1548H9.5V11.1548L8.11325 12.5959ZM5.28212 9.87167L5.28212 9.87166L6.66888 8.43051C5.89452 7.68538 4.66974 7.68538 3.89538 8.43051L5.28212 9.87167ZM-1 11.2166C-1 12.9799 1.11614 13.8804 2.38675 12.6577L1 11.2166L1 11.2166H-1Z" fill="#8D9198" mask="url(#path-1-inside-1_17_14057)"/>
</svg>
