<svg width="56" height="47" viewBox="0 0 56 47" fill="none" xmlns="http://www.w3.org/2000/svg">
<path fill-rule="evenodd" clip-rule="evenodd" d="M0 2C0 0.895431 0.895431 0 2 0H36C37.1046 0 38 0.895431 38 2C38 3.10457 37.1046 4 36 4H2C0.89543 4 0 3.10457 0 2ZM0 23C0 21.8954 0.895431 21 2 21H54C55.1046 21 56 21.8954 56 23C56 24.1046 55.1046 25 54 25H2C0.89543 25 0 24.1046 0 23ZM2 43C0.895431 43 0 43.8954 0 45C0 46.1046 0.89543 47 2 47H36C37.1046 47 38 46.1046 38 45C38 43.8954 37.1046 43 36 43H2Z" fill="#111317"/>
</svg>
