<svg width="18" height="19" viewBox="0 0 18 19" fill="none" xmlns="http://www.w3.org/2000/svg">
<path fill-rule="evenodd" clip-rule="evenodd" d="M11.5 4C11.5 5.38071 10.3807 6.5 9 6.5C7.61929 6.5 6.5 5.38071 6.5 4C6.5 2.61929 7.61929 1.5 9 1.5C10.3807 1.5 11.5 2.61929 11.5 4ZM13 4C13 6.20914 11.2091 8 9 8C6.79086 8 5 6.20914 5 4C5 1.79086 6.79086 0 9 0C11.2091 0 13 1.79086 13 4ZM16.5 17C16.5 13.9624 14.0376 11.5 11 11.5H7C3.96243 11.5 1.5 13.9624 1.5 17V18.25C1.5 18.6642 1.16421 19 0.75 19C0.335786 19 0 18.6642 0 18.25V17C0 13.134 3.13401 10 7 10H11C14.866 10 18 13.134 18 17V18.25C18 18.6642 17.6642 19 17.25 19C16.8358 19 16.5 18.6642 16.5 18.25V17Z" fill="#111317"/>
</svg>
