<svg width="15" height="26" viewBox="0 0 15 26" fill="none" xmlns="http://www.w3.org/2000/svg">
<path fill-rule="evenodd" clip-rule="evenodd" d="M0.585787 0.585786C-0.195262 1.36683 -0.195262 2.63317 0.585787 3.41421L10.1104 12.9388L0.585786 22.4634C-0.195262 23.2445 -0.195262 24.5108 0.585787 25.2918C1.36684 26.0729 2.63317 26.0729 3.41421 25.2918L14.2635 14.4425C14.295 14.4148 14.3257 14.3859 14.3558 14.3558C14.7471 13.9645 14.9424 13.4514 14.9416 12.9385C14.9422 12.4258 14.747 11.913 14.3558 11.5218C14.3258 11.4918 14.295 11.4629 14.2635 11.4351L3.41421 0.585786C2.63317 -0.195262 1.36683 -0.195262 0.585787 0.585786Z" fill="#8A8E96"/>
</svg>
