<svg width="19" height="19" viewBox="0 0 19 19" fill="none" xmlns="http://www.w3.org/2000/svg">
<path fill-rule="evenodd" clip-rule="evenodd" d="M14.4088 3.7H11.2154C11.3463 3.53642 11.4898 3.36757 11.6432 3.1982C12.0338 2.76674 12.4598 2.36369 12.8646 2.05393C13.2921 1.72687 13.5972 1.58021 13.7523 1.53992C13.9827 1.48004 14.0905 1.50325 14.117 1.5107C14.1363 1.51613 14.1614 1.52509 14.2037 1.57462C14.32 1.71054 14.5 2.09864 14.5 2.81669C14.5 3.12405 14.4642 3.42287 14.4088 3.7ZM13.375 0.0881389C12.0949 0.420792 10.3466 2.21345 9.5 3.50815C8.65342 2.21345 6.90511 0.420792 5.625 0.0881389C3.875 -0.36662 3 0.997656 3 2.81669C3 3.12102 3.02551 3.4174 3.06853 3.7H3C1.34315 3.7 0 5.04315 0 6.7V15.7C0 17.3569 1.34315 18.7 3 18.7H16C17.6569 18.7 19 17.3569 19 15.7V6.7C19 5.04315 17.6569 3.7 16 3.7H15.9315C15.9745 3.4174 16 3.12102 16 2.81669C16 0.997656 15.125 -0.36662 13.375 0.0881389ZM7.78463 3.7H4.59121C4.53579 3.42287 4.5 3.12405 4.5 2.81669C4.5 2.09864 4.68002 1.71054 4.79625 1.57462C4.83861 1.52509 4.86373 1.51613 4.88304 1.5107C4.90948 1.50325 5.01729 1.48004 5.24774 1.53992C5.40276 1.58021 5.70792 1.72687 6.13536 2.05393C6.5402 2.36369 6.96616 2.76674 7.35683 3.1982C7.51019 3.36757 7.65367 3.53642 7.78463 3.7ZM16 5.2C16.8284 5.2 17.5 5.87157 17.5 6.7V15.7C17.5 16.5284 16.8284 17.2 16 17.2H10.22V5.2H16ZM8.72 5.2H3C2.17157 5.2 1.5 5.87157 1.5 6.7V15.7C1.5 16.5284 2.17157 17.2 3 17.2H8.72V5.2Z" fill="#111317"/>
</svg>
