<svg width="7" height="11" viewBox="0 0 7 11" fill="none" xmlns="http://www.w3.org/2000/svg">
<path fill-rule="evenodd" clip-rule="evenodd" d="M0.21967 0.21967C-0.0732233 0.512563 -0.0732233 0.987437 0.21967 1.28033L4.27867 5.33933L0.219679 9.39833C-0.0732145 9.69122 -0.0732145 10.1661 0.219679 10.459C0.512572 10.7519 0.987446 10.7519 1.28034 10.459L5.78414 5.95519C5.81649 5.93186 5.84741 5.90564 5.87652 5.87652C6.02459 5.72846 6.09781 5.53388 6.09617 5.33982C6.09806 5.14543 6.02485 4.95045 5.87653 4.80213C5.8474 4.773 5.81646 4.74676 5.78408 4.72342L1.28033 0.21967C0.987437 -0.0732233 0.512563 -0.0732233 0.21967 0.21967Z" fill="#8A8E96"/>
</svg>
