<svg width="20" height="19" viewBox="0 0 20 19" fill="none" xmlns="http://www.w3.org/2000/svg">
<mask id="path-1-inside-1_17_12656" fill="white">
<path fill-rule="evenodd" clip-rule="evenodd" d="M9.66738 17.4934C15.0065 17.4934 19.3348 13.5773 19.3348 8.74668C19.3348 3.91602 15.0065 0 9.66738 0C4.32823 0 0 3.91602 0 8.74668C0 10.8658 0.832914 12.8089 2.2187 14.3226L1.91739 17.8633C1.85211 18.6303 2.64165 19.1804 3.33855 18.8534L6.97161 17.1488C7.82726 17.3731 8.7318 17.4934 9.66738 17.4934Z"/>
</mask>
<path d="M2.2187 14.3226L3.7133 14.4498L3.76905 13.7946L3.32508 13.3097L2.2187 14.3226ZM1.91739 17.8633L3.41198 17.9905L1.91739 17.8633ZM3.33855 18.8534L3.9757 20.2114L3.9757 20.2113L3.33855 18.8534ZM6.97161 17.1488L7.35203 15.6978L6.8264 15.56L6.33446 15.7908L6.97161 17.1488ZM17.8348 8.74668C17.8348 12.6112 14.3229 15.9934 9.66738 15.9934V18.9934C15.6902 18.9934 20.8348 14.5435 20.8348 8.74668H17.8348ZM9.66738 1.5C14.3229 1.5 17.8348 4.88216 17.8348 8.74668H20.8348C20.8348 2.94988 15.6902 -1.5 9.66738 -1.5V1.5ZM1.5 8.74668C1.5 4.88216 5.01189 1.5 9.66738 1.5V-1.5C3.64458 -1.5 -1.5 2.94988 -1.5 8.74668H1.5ZM3.32508 13.3097C2.1705 12.0485 1.5 10.4595 1.5 8.74668H-1.5C-1.5 11.2721 -0.50467 13.5692 1.11232 15.3354L3.32508 13.3097ZM3.41198 17.9905L3.7133 14.4498L0.724104 14.1954L0.422789 17.7361L3.41198 17.9905ZM2.7014 17.4954C3.04986 17.3319 3.44462 17.607 3.41198 17.9905L0.422789 17.7361C0.259604 19.6537 2.23344 21.0288 3.9757 20.2114L2.7014 17.4954ZM6.33446 15.7908L2.7014 17.4954L3.9757 20.2113L7.60876 18.5067L6.33446 15.7908ZM9.66738 15.9934C8.86056 15.9934 8.08387 15.8897 7.35203 15.6978L6.59119 18.5997C7.57066 18.8565 8.60303 18.9934 9.66738 18.9934V15.9934Z" fill="#111317" mask="url(#path-1-inside-1_17_12656)"/>
</svg>
