<svg width="29" height="28" viewBox="0 0 29 28" fill="none" xmlns="http://www.w3.org/2000/svg">
<path fill-rule="evenodd" clip-rule="evenodd" d="M28.1649 3.34132C28.7825 3.95892 28.7825 4.96026 28.1649 5.57787C27.5473 6.19547 26.546 6.19547 25.9284 5.57787L23.3169 2.96636C22.6993 2.34875 22.6993 1.34741 23.3169 0.729806C23.9345 0.1122 24.9358 0.1122 25.5534 0.729806L28.1649 3.34132ZM5.93968 0.729822C5.32208 0.112216 4.32074 0.112217 3.70313 0.729823L1.09162 3.34133C0.474016 3.95894 0.474017 4.96028 1.09162 5.57788C1.70923 6.19549 2.71057 6.19549 3.32817 5.57788L5.93968 2.96637C6.55729 2.34877 6.55729 1.34743 5.93968 0.729822ZM14.7339 27.0238C21.7213 27.0238 27.3857 21.3594 27.3857 14.372C27.3857 7.38458 21.7213 1.72016 14.7339 1.72016C7.74648 1.72016 2.08206 7.38458 2.08206 14.372C2.08206 21.3594 7.74648 27.0238 14.7339 27.0238ZM13.2575 6.46459C13.2575 5.59117 13.9656 4.88312 14.839 4.88312C15.7124 4.88312 16.4205 5.59117 16.4205 6.4646V13.4669L20.3225 15.7197C21.0789 16.1565 21.3381 17.1237 20.9013 17.8801C20.4646 18.6365 19.4974 18.8957 18.741 18.459L14.1239 15.7932C13.811 15.6126 13.5833 15.3413 13.4546 15.0317C13.329 14.805 13.2575 14.5441 13.2575 14.2666V6.46459Z" fill="#281E06"/>
</svg>
