<svg width="58" height="58" viewBox="0 0 58 58" fill="none" xmlns="http://www.w3.org/2000/svg">
<path fill-rule="evenodd" clip-rule="evenodd" d="M46 25C46 36.598 36.598 46 25 46C13.402 46 4 36.598 4 25C4 13.402 13.402 4 25 4C36.598 4 46 13.402 46 25ZM40.9867 44.2213C36.653 47.8296 31.08 50 25 50C11.1929 50 0 38.8071 0 25C0 11.1929 11.1929 0 25 0C38.8071 0 50 11.1929 50 25C50 31.335 47.6437 37.1197 43.7597 41.5254L56.9334 54.699C57.6885 55.4541 57.6885 56.6784 56.9334 57.4335C56.1783 58.1886 54.954 58.1886 54.1989 57.4335L40.9867 44.2213Z" fill="#111317"/>
</svg>
