<svg width="14" height="12" viewBox="0 0 14 12" fill="none" xmlns="http://www.w3.org/2000/svg">
<path fill-rule="evenodd" clip-rule="evenodd" d="M12.5428 8.26243C12.6486 8.10316 12.8232 7.9997 13.0144 7.9997C13.4002 7.9997 13.654 8.39554 13.4467 8.72089C12.2068 10.6671 9.6782 12 6.76045 12C3.8427 12 1.3141 10.6671 0.0741667 8.72089C-0.133119 8.39554 0.120685 7.9997 0.506461 7.9997C0.697677 7.9997 0.872285 8.10316 0.978101 8.26243C2.02108 9.83226 4.12242 11 6.76045 11C9.39848 11 11.4998 9.83226 12.5428 8.26243ZM0.978458 3.73704C0.872635 3.89627 0.698044 3.9997 0.506853 3.9997C0.121042 3.9997 -0.132762 3.6038 0.074588 3.27845C1.31468 1.33261 3.84303 0 6.76045 0C9.67787 0 12.2062 1.33261 13.4463 3.27845C13.6537 3.6038 13.3999 3.9997 13.0141 3.9997C12.8229 3.9997 12.6483 3.89627 12.5424 3.73704C11.4993 2.16747 9.39818 1 6.76045 1C4.12272 1 2.02155 2.16747 0.978458 3.73704ZM6.76047 8.5003C8.14118 8.5003 9.26047 7.38101 9.26047 6.0003C9.26047 4.61959 8.14118 3.5003 6.76047 3.5003C5.37976 3.5003 4.26047 4.61959 4.26047 6.0003C4.26047 7.38101 5.37976 8.5003 6.76047 8.5003Z" fill="#8D9198"/>
</svg>
