<svg width="56" height="56" viewBox="0 0 56 56" fill="none" xmlns="http://www.w3.org/2000/svg">
<circle cx="28" cy="28" r="21.5" stroke="#111111" stroke-width="3"/>
<path d="M36.0837 28C36.0837 34.2027 35.0333 39.7479 33.3921 43.6865C32.5702 45.6591 31.6297 47.1575 30.662 48.1399C29.6995 49.1169 28.801 49.5 28.0003 49.5C27.1997 49.5 26.3011 49.1169 25.3386 48.1399C24.3709 47.1575 23.4304 45.6591 22.6085 43.6865C20.9674 39.7479 19.917 34.2027 19.917 28C19.917 21.7973 20.9674 16.2521 22.6085 12.3135C23.4304 10.3409 24.3709 8.84246 25.3386 7.86013C26.3011 6.88308 27.1997 6.5 28.0003 6.5C28.801 6.5 29.6995 6.88308 30.662 7.86013C31.6297 8.84246 32.5702 10.3409 33.3921 12.3135C35.0333 16.2521 36.0837 21.7973 36.0837 28Z" stroke="#111111" stroke-width="3"/>
<path d="M6.91602 28H49.0827" stroke="#111111" stroke-width="3"/>
</svg>
