<svg width="14" height="19" viewBox="0 0 14 19" fill="none" xmlns="http://www.w3.org/2000/svg">
<path fill-rule="evenodd" clip-rule="evenodd" d="M3.18834 19L10.7338 19L10.7338 16.2727L3.18834 16.2727L3.18834 19ZM13.8701 10.5625L13.8701 10.5625L10.6693 15.3636L3.20091 15.3636L0.000151418 10.5625L4.80126 1.44041C4.60688 1.29443 4.48115 1.06199 4.48115 0.80018C4.48115 0.358247 4.83941 -1.03262e-05 5.28134 -1.02876e-05C5.72327 -1.0249e-05 6.08153 0.358247 6.08153 0.80018L6.08153 0.802158L6.08155 0.802158L6.08155 8.67506C5.6328 8.95856 5.33477 9.45899 5.33477 10.029C5.33477 10.2161 5.36686 10.3956 5.42584 10.5625C5.64554 11.1841 6.23834 11.6294 6.93515 11.6294C7.63197 11.6294 8.22476 11.1841 8.44446 10.5625C8.50344 10.3956 8.53553 10.2161 8.53553 10.029C8.53553 9.41487 8.18959 8.88152 7.68193 8.6132L7.68193 0.802158L7.68195 0.802158L7.68195 0.80018C7.68195 0.358247 8.0402 -1.00464e-05 8.48214 -1.00078e-05C8.92407 -9.96914e-06 9.28233 0.358247 9.28233 0.80018C9.28233 1.02716 9.18782 1.23206 9.03601 1.3777L13.8701 10.5625Z" fill="#2F7FFF"/>
</svg>
