<svg width="24" height="24" viewBox="0 0 24 24" fill="none" xmlns="http://www.w3.org/2000/svg">
<circle cx="11.9995" cy="12" r="11.3" stroke="#111111" stroke-width="1.4"/>
<path d="M16.2995 12C16.2995 15.2444 15.7502 18.1488 14.8889 20.2161C14.4576 21.2512 13.9618 22.0432 13.4471 22.5657C12.9348 23.0858 12.446 23.3 11.9995 23.3C11.553 23.3 11.0643 23.0858 10.552 22.5657C10.0372 22.0432 9.54145 21.2512 9.11013 20.2161C8.24877 18.1488 7.69951 15.2444 7.69951 12C7.69951 8.75561 8.24877 5.85121 9.11013 3.78395C9.54145 2.74879 10.0372 1.95679 10.552 1.43427C11.0643 0.914216 11.553 0.7 11.9995 0.7C12.446 0.7 12.9348 0.914216 13.4471 1.43427C13.9618 1.95679 14.4576 2.74879 14.8889 3.78395C15.7502 5.85121 16.2995 8.75561 16.2995 12Z" stroke="#111111" stroke-width="1.4"/>
<path d="M0.999512 12H22.9995" stroke="#111111" stroke-width="1.4"/>
</svg>
