<svg width="58" height="58" viewBox="0 0 58 58" fill="none" xmlns="http://www.w3.org/2000/svg">
<path fill-rule="evenodd" clip-rule="evenodd" d="M52 45.2632H56C57.1046 45.2632 58 46.1586 58 47.2632C58 48.3678 57.1046 49.2632 56 49.2632H2C0.895432 49.2632 0 48.3678 0 47.2632C0 46.1586 0.895431 45.2632 2 45.2632H5.99997V23C5.99997 10.2974 16.2974 0 29 0C41.7025 0 52 10.2975 52 23V45.2632ZM48 45.2632V23C48 12.5066 39.4934 4 29 4C18.5066 4 9.99997 12.5066 9.99997 23V45.2632H48ZM22 56C22 54.8954 22.8954 54 24 54H34C35.1046 54 36 54.8954 36 56C36 57.1046 35.1046 58 34 58H24C22.8954 58 22 57.1046 22 56Z" fill="#111317"/>
</svg>
