<svg width="32" height="32" viewBox="0 0 32 32" fill="none" xmlns="http://www.w3.org/2000/svg">
<path fill-rule="evenodd" clip-rule="evenodd" d="M15.9998 31.3337C24.4682 31.3337 31.3332 24.4687 31.3332 16.0003C31.3332 7.53196 24.4682 0.666992 15.9998 0.666992C7.53147 0.666992 0.666504 7.53196 0.666504 16.0003C0.666504 24.4687 7.53147 31.3337 15.9998 31.3337ZM14.211 6.41696C14.211 5.35841 15.0691 4.50029 16.1277 4.50029C17.1862 4.50029 18.0443 5.35841 18.0443 6.41695V14.9034L22.7734 17.6337C23.6901 18.163 24.0042 19.3352 23.4749 20.2519C22.9457 21.1686 21.7734 21.4827 20.8567 20.9535L15.261 17.7228C14.882 17.5039 14.606 17.1752 14.45 16.8001C14.2977 16.5252 14.211 16.209 14.211 15.8725V6.41696Z" fill="#111317"/>
</svg>
