<svg width="24" height="24" viewBox="0 0 24 24" fill="none" xmlns="http://www.w3.org/2000/svg">
<path fill-rule="evenodd" clip-rule="evenodd" d="M17.6678 10.0339C17.6678 14.25 14.25 17.6678 10.0339 17.6678C5.81782 17.6678 2.4 14.25 2.4 10.0339C2.4 5.81782 5.81782 2.4 10.0339 2.4C14.25 2.4 17.6678 5.81782 17.6678 10.0339ZM15.9078 16.8977C14.3284 18.2506 12.2766 19.0678 10.0339 19.0678C5.04462 19.0678 1 15.0232 1 10.0339C1 5.04462 5.04462 1 10.0339 1C15.0232 1 19.0678 5.04462 19.0678 10.0339C19.0678 12.2766 18.2506 14.3284 16.8977 15.9078L22.8437 21.8538L21.8538 22.8437L15.9078 16.8977Z" fill="#111111"/>
</svg>
