<svg width="312" height="60" viewBox="0 0 312 60" fill="none" xmlns="http://www.w3.org/2000/svg">
<path d="M71.0029 59.3387V28.0254H77.9729V52.6789H91.4993V59.3594H71.0029V59.3387Z" fill="#171A1E"/>
<path d="M94.6846 59.3387V28.0254H101.758V59.3387H94.6846Z" fill="#171A1E"/>
<path d="M117.704 47.0119L114.167 50.9416V59.3387H107.197V28.0254H114.167V41.2002L125.605 28.0254H134.788L122.585 41.5931L134.829 59.3594H126.122L117.683 47.0326L117.704 47.0119Z" fill="#171A1E"/>
<path d="M137.353 59.3387V28.0254H157.187V34.6024H144.323V40.559H155.987V46.7017H144.323V52.7203H157.228V59.3387H137.353Z" fill="#171A1E"/>
<path d="M190.713 59.3387L177.807 38.7596V59.3387H170.878V28.0254H179.358L191.106 47.074V28.0254H198.076V59.3387H190.692H190.713Z" fill="#171A1E"/>
<path d="M218.014 27.3633C226.804 27.3633 234.271 33.7749 234.271 43.7025C234.271 53.6301 226.804 60.0003 218.014 60.0003C209.224 60.0003 201.716 53.5887 201.716 43.7025C201.716 33.8162 209.183 27.3633 218.014 27.3633ZM218.014 53.113C222.337 53.113 227.032 50.1968 227.032 43.6611C227.032 37.1254 222.357 34.1678 218.014 34.1678C213.671 34.1678 208.955 37.1254 208.955 43.6611C208.955 50.1968 213.629 53.113 218.014 53.113Z" fill="#171A1E"/>
<path d="M256.587 28.0254H264.012L252.575 59.3387H245.377L233.898 28.0254H241.592L249.141 50.0729L256.608 28.0254H256.587Z" fill="#171A1E"/>
<path d="M266.515 59.3387V28.0254H286.349V34.6024H273.485V40.559H285.15V46.7017H273.485V52.7203H286.391V59.3387H266.515Z" fill="#171A1E"/>
<path d="M290.94 59.3387V28.0254H297.931V52.6789H311.457V59.3594H290.961L290.94 59.3387Z" fill="#171A1E"/>
<path d="M47.7973 23.2051H0V59.9993H47.7973V23.2051Z" fill="#0456D9"/>
<path d="M36.2151 44.0129L0 60.0005V23.2063L36.2151 7.21875V44.0129Z" fill="#0CA9DC"/>
<path d="M24.1572 36.7942L0 60V23.2058L24.1572 0V36.7942Z" fill="#57D6FF"/>
</svg>
