<svg width="89" height="50" viewBox="0 0 89 50" fill="none" xmlns="http://www.w3.org/2000/svg">
<path fill-rule="evenodd" clip-rule="evenodd" d="M20 0C8.95431 0 0 8.95431 0 20C0 31.0457 8.95431 40 20 40H59.0921V49.517L71.2588 39.8739C81.2411 38.7518 89 30.282 89 20C89 8.95431 80.0457 0 69 0H20Z" fill="#FF4E30"/>
<path d="M25.7969 14.4121C25.7331 13.8105 25.5234 13.291 25.168 12.8535C24.8216 12.416 24.3522 12.0879 23.7598 11.8691C23.1673 11.6504 22.4928 11.541 21.7363 11.541C20.9434 11.541 20.2461 11.6641 19.6445 11.9102C19.043 12.1562 18.5781 12.5026 18.25 12.9492C17.9219 13.3867 17.7578 13.888 17.7578 14.4531C17.7578 15.2917 18.0996 15.9388 18.7832 16.3945C19.4759 16.8411 20.3372 17.1875 21.3672 17.4336L23.2676 17.9395C24.9173 18.3496 26.2799 18.9785 27.3555 19.8262C28.4401 20.6738 28.9824 21.9089 28.9824 23.5312C28.9824 24.6523 28.6908 25.6549 28.1074 26.5391C27.5332 27.4141 26.6901 28.0977 25.5781 28.5898C24.4753 29.082 23.1628 29.3281 21.6406 29.3281C20.1641 29.3281 18.8835 29.0911 17.7988 28.6172C16.7233 28.1432 15.8757 27.4733 15.2559 26.6074C14.6452 25.7415 14.3034 24.7116 14.2305 23.5176H17.2383C17.293 24.2012 17.5208 24.7845 17.9219 25.2676C18.3229 25.7415 18.8424 26.097 19.4805 26.334C20.1276 26.571 20.8431 26.6849 21.627 26.6758C22.4655 26.6758 23.2174 26.5436 23.8828 26.2793C24.5482 26.015 25.0677 25.6413 25.4414 25.1582C25.8151 24.6751 26.002 24.1146 26.002 23.4766C26.002 22.9297 25.847 22.4648 25.5371 22.082C25.2272 21.6992 24.8034 21.3893 24.2656 21.1523C23.7279 20.9154 23.0625 20.6921 22.2695 20.4824L19.918 19.8672C18.2591 19.4115 16.9831 18.7598 16.0898 17.9121C15.2057 17.0553 14.7682 15.957 14.7773 14.6172C14.7773 13.4961 15.0781 12.5026 15.6797 11.6367C16.2904 10.7708 17.1289 10.1055 18.1953 9.64062C19.2708 9.16667 20.474 8.92969 21.8047 8.92969C23.1263 8.92969 24.3066 9.16667 25.3457 9.64062C26.3939 10.1055 27.2096 10.7572 27.793 11.5957C28.3854 12.4251 28.6908 13.3639 28.709 14.4121H25.7969ZM30.022 29L37.1314 9.20312H40.6177L47.7408 29H44.5279L38.9498 12.8262H38.7857L33.1939 29H30.022ZM44.0084 21.248V23.7637H33.7271V21.248H44.0084ZM49.7238 9.20312H52.7316V26.416H61.6866V29H49.7238V9.20312ZM64.2028 9.20312H76.6305V11.7871H67.2106V17.8027H75.9743V20.373H67.2106V26.416H76.7262V29H64.2028V9.20312Z" fill="white"/>
</svg>
