<svg width="680" height="530" viewBox="0 0 680 530" fill="none" xmlns="http://www.w3.org/2000/svg">
<path opacity="0.2" d="M666.264 127.068L580.405 212.927" stroke="white" stroke-width="5.36837"/>
<path opacity="0.2" d="M552.928 212.926L467.069 127.067" stroke="white" stroke-width="5.36837"/>
<path opacity="0.2" d="M439.598 127.068L353.739 212.927" stroke="white" stroke-width="5.36837"/>
<path opacity="0.2" d="M326.261 212.926L240.402 127.067" stroke="white" stroke-width="5.36837"/>
<path opacity="0.2" d="M212.931 127.068L127.072 212.927" stroke="white" stroke-width="5.36837"/>
<path opacity="0.2" d="M99.5942 212.926L13.7355 127.067" stroke="white" stroke-width="5.36837"/>
<path d="M13.7358 326.264L99.5946 240.405" stroke="white" stroke-width="5.36837"/>
<path d="M127.072 439.594L212.931 353.735" stroke="white" stroke-width="5.36837"/>
<path d="M127.072 240.406L212.931 326.265" stroke="white" stroke-width="5.36837"/>
<path d="M13.7358 353.736L99.5946 439.595" stroke="white" stroke-width="5.36837"/>
<path d="M240.402 326.264L326.261 240.405" stroke="white" stroke-width="5.36837"/>
<path d="M353.739 439.594L439.598 353.735" stroke="white" stroke-width="5.36837"/>
<path d="M353.739 240.406L439.598 326.265" stroke="white" stroke-width="5.36837"/>
<path d="M240.402 353.736L326.261 439.595" stroke="white" stroke-width="5.36837"/>
<path d="M467.069 326.264L552.928 240.405" stroke="white" stroke-width="5.36837"/>
<path d="M580.406 439.594L666.265 353.735" stroke="white" stroke-width="5.36837"/>
<path d="M580.406 240.406L666.265 326.265" stroke="white" stroke-width="5.36837"/>
<path d="M467.069 353.736L552.928 439.595" stroke="white" stroke-width="5.36837"/>
<path opacity="0.2" d="M13.7358 552.932L99.5946 467.073" stroke="white" stroke-width="5.36837"/>
<path opacity="0.2" d="M127.072 467.074L212.931 552.933" stroke="white" stroke-width="5.36837"/>
<path opacity="0.2" d="M240.402 552.932L326.261 467.073" stroke="white" stroke-width="5.36837"/>
<path opacity="0.2" d="M353.739 467.074L439.598 552.933" stroke="white" stroke-width="5.36837"/>
<path opacity="0.2" d="M467.069 552.932L552.928 467.073" stroke="white" stroke-width="5.36837"/>
<path opacity="0.2" d="M580.406 467.074L666.265 552.933" stroke="white" stroke-width="5.36837"/>
</svg>
