<svg width="56" height="44" viewBox="0 0 56 44" fill="none" xmlns="http://www.w3.org/2000/svg">
<path fill-rule="evenodd" clip-rule="evenodd" d="M27.6982 3.96113C27.6699 3.961 27.6416 3.96094 27.6133 3.96094C17.6722 3.96094 9.61328 12.0198 9.61328 21.9609C9.61328 28.1352 12.7219 33.5833 17.4594 36.8257L19.0066 34.7277C14.9109 31.9611 12.2179 27.2755 12.2179 21.9609C12.2179 13.4583 19.1107 6.56559 27.6133 6.56559C27.6395 6.56559 27.6656 6.56566 27.6918 6.56579L27.6982 3.96113ZM36.2199 9.19417C40.3157 11.9607 43.0086 16.6463 43.0086 21.9609C43.0086 30.4636 36.1159 37.3563 27.6133 37.3563L27.5348 37.3561L27.5284 39.9607L27.6133 39.9609C37.5544 39.9609 45.6133 31.9021 45.6133 21.9609C45.6133 15.7867 42.5047 10.3385 37.7672 7.09619L36.2199 9.19417Z" fill="#111111"/>
<path d="M37 14V8H43" stroke="#111111" stroke-width="3"/>
<path d="M19.4268 30.9238V36.9238H13.4268" stroke="#111111" stroke-width="3"/>
<line x1="21.7002" y1="21.4004" x2="21.7002" y2="27.4004" stroke="#111111" stroke-width="3"/>
<line x1="27.7002" y1="19" x2="27.7002" y2="27.4" stroke="#111111" stroke-width="3"/>
<line x1="33.7002" y1="16.5996" x2="33.7002" y2="27.3996" stroke="#111111" stroke-width="3"/>
</svg>
