<svg width="56" height="44" viewBox="0 0 56 44" fill="none" xmlns="http://www.w3.org/2000/svg">
<g clip-path="url(#clip0_755_25559)">
<path fill-rule="evenodd" clip-rule="evenodd" d="M12.7588 21.1513C13.3318 17.51 15.1783 14.2918 17.8282 11.9668L19.7745 14.2503C17.5982 16.1727 16.1004 18.8457 15.6864 21.8641L12.7588 21.1513ZM38.5591 12.3191L36.5376 14.5363C38.5442 16.4337 39.9189 18.9926 40.3127 21.864L43.2404 21.1512C42.6958 17.6905 41.0008 14.6119 38.5591 12.3191ZM34.8941 37.3755L33.4445 34.7448C31.8002 35.5474 29.9525 35.9978 27.9996 35.9978C26.0026 35.9978 24.1156 35.5269 22.4436 34.6899L20.9653 37.3047C23.0746 38.3871 25.4658 38.9978 27.9996 38.9978C30.4776 38.9978 32.8191 38.4137 34.8941 37.3755Z" fill="#111111"/>
<circle cx="28.5" cy="5.5" r="3" stroke="black" stroke-width="3"/>
<circle cx="44.5" cy="28.5" r="3" stroke="black" stroke-width="3"/>
<circle cx="12.5" cy="28.5" r="3" stroke="black" stroke-width="3"/>
<mask id="path-5-inside-1_755_25559" fill="white">
<path d="M35 16C35 13.8783 34.3152 11.8434 33.0962 10.3431C31.8772 8.84285 30.2239 8 28.5 8C26.7761 8 25.1228 8.84285 23.9038 10.3431C22.6848 11.8434 22 13.8783 22 16L28.5 16H35Z"/>
</mask>
<path d="M35 16C35 13.8783 34.3152 11.8434 33.0962 10.3431C31.8772 8.84285 30.2239 8 28.5 8C26.7761 8 25.1228 8.84285 23.9038 10.3431C22.6848 11.8434 22 13.8783 22 16L28.5 16H35Z" stroke="black" stroke-width="6" mask="url(#path-5-inside-1_755_25559)"/>
<mask id="path-6-inside-2_755_25559" fill="white">
<path d="M51 39C51 36.8783 50.3152 34.8434 49.0962 33.3431C47.8772 31.8429 46.2239 31 44.5 31C42.7761 31 41.1228 31.8429 39.9038 33.3431C38.6848 34.8434 38 36.8783 38 39L44.5 39H51Z"/>
</mask>
<path d="M51 39C51 36.8783 50.3152 34.8434 49.0962 33.3431C47.8772 31.8429 46.2239 31 44.5 31C42.7761 31 41.1228 31.8429 39.9038 33.3431C38.6848 34.8434 38 36.8783 38 39L44.5 39H51Z" stroke="black" stroke-width="6" mask="url(#path-6-inside-2_755_25559)"/>
<mask id="path-7-inside-3_755_25559" fill="white">
<path d="M19 39C19 36.8783 18.3152 34.8434 17.0962 33.3431C15.8772 31.8429 14.2239 31 12.5 31C10.7761 31 9.12279 31.8429 7.90381 33.3431C6.68482 34.8434 6 36.8783 6 39L12.5 39H19Z"/>
</mask>
<path d="M19 39C19 36.8783 18.3152 34.8434 17.0962 33.3431C15.8772 31.8429 14.2239 31 12.5 31C10.7761 31 9.12279 31.8429 7.90381 33.3431C6.68482 34.8434 6 36.8783 6 39L12.5 39H19Z" stroke="black" stroke-width="6" mask="url(#path-7-inside-3_755_25559)"/>
<path d="M23.5 23.5L27.0191 27L33.5 21" stroke="#111111" stroke-width="3"/>
</g>
<defs>
<clipPath id="clip0_755_25559">
<rect width="46" height="42" fill="white" transform="translate(5 1)"/>
</clipPath>
</defs>
</svg>
