<svg width="60" height="60" viewBox="0 0 60 60" fill="none" xmlns="http://www.w3.org/2000/svg">
<mask id="path-1-inside-1_54_72" fill="white">
<path fill-rule="evenodd" clip-rule="evenodd" d="M16 0C7.16345 0 0 7.16344 0 16V31.4831C0 38.4955 4.51111 44.4542 10.7896 46.6156L10.7896 57.9184C10.7896 59.5933 12.7253 60.5263 14.0355 59.4829L29.1035 47.4831H43.3539C52.1905 47.4831 59.3539 40.3197 59.3539 31.4831V16C59.3539 7.16345 52.1905 0 43.3539 0H16Z"/>
</mask>
<path fill-rule="evenodd" clip-rule="evenodd" d="M16 0C7.16345 0 0 7.16344 0 16V31.4831C0 38.4955 4.51111 44.4542 10.7896 46.6156L10.7896 57.9184C10.7896 59.5933 12.7253 60.5263 14.0355 59.4829L29.1035 47.4831H43.3539C52.1905 47.4831 59.3539 40.3197 59.3539 31.4831V16C59.3539 7.16345 52.1905 0 43.3539 0H16Z" fill="#57D6FF"/>
<path d="M10.7896 46.6156L14.7896 46.6156L14.7896 43.7622L12.0916 42.8334L10.7896 46.6156ZM10.7896 57.9184L14.7896 57.9184L10.7896 57.9184ZM14.0355 59.4829L11.5437 56.3539L11.5436 56.3539L14.0355 59.4829ZM29.1035 47.4831V43.4831H27.7053L26.6116 44.3541L29.1035 47.4831ZM4 16C4 9.37258 9.37258 4 16 4V-4C4.95431 -4 -4 4.9543 -4 16H4ZM4 31.4831V16H-4V31.4831H4ZM12.0916 42.8334C7.37774 41.2107 4 36.7362 4 31.4831H-4C-4 40.2548 1.64447 47.6977 9.48757 50.3977L12.0916 42.8334ZM14.7896 57.9184L14.7896 46.6156L6.78959 46.6156L6.78958 57.9184L14.7896 57.9184ZM11.5436 56.3539C12.8539 55.3104 14.7896 56.2434 14.7896 57.9184L6.78958 57.9184C6.78957 62.9432 12.5967 65.7422 16.5274 62.6119L11.5436 56.3539ZM26.6116 44.3541L11.5437 56.3539L16.5274 62.6119L31.5953 50.6121L26.6116 44.3541ZM43.3539 43.4831H29.1035V51.4831H43.3539V43.4831ZM55.3539 31.4831C55.3539 38.1106 49.9813 43.4831 43.3539 43.4831V51.4831C54.3996 51.4831 63.3539 42.5288 63.3539 31.4831H55.3539ZM55.3539 16V31.4831H63.3539V16H55.3539ZM43.3539 4C49.9813 4 55.3539 9.37259 55.3539 16H63.3539C63.3539 4.9543 54.3996 -4 43.3539 -4V4ZM16 4H43.3539V-4H16V4Z" fill="#17191D" mask="url(#path-1-inside-1_54_72)"/>
<path fill-rule="evenodd" clip-rule="evenodd" d="M33.6338 23.7421C33.6338 25.9274 31.8622 27.699 29.6769 27.699C27.4915 27.699 25.72 25.9274 25.72 23.7421C25.72 21.5567 27.4915 19.7852 29.6769 19.7852C31.8622 19.7852 33.6338 21.5567 33.6338 23.7421ZM19.7845 23.7421C19.7845 25.9275 18.0129 27.699 15.8275 27.699C13.6422 27.699 11.8706 25.9275 11.8706 23.7421C11.8706 21.5568 13.6422 19.7852 15.8275 19.7852C18.0129 19.7852 19.7845 21.5568 19.7845 23.7421ZM43.5261 27.699C45.7114 27.699 47.483 25.9274 47.483 23.7421C47.483 21.5567 45.7114 19.7852 43.5261 19.7852C41.3407 19.7852 39.5692 21.5567 39.5692 23.7421C39.5692 25.9274 41.3407 27.699 43.5261 27.699Z" fill="#17191D"/>
</svg>
