<svg width="61" height="61" viewBox="0 0 61 61" fill="none" xmlns="http://www.w3.org/2000/svg">
<path d="M6.70343 32.25L32.0493 6.90411L53.4966 28.3514C55.8397 30.6945 55.8397 34.4935 53.4966 36.8367L36.636 53.6973C34.2928 56.0404 30.4938 56.0404 28.1507 53.6973L6.70343 32.25Z" fill="white" stroke="#17191D" stroke-width="4"/>
<mask id="path-2-inside-1_54_45" fill="white">
<path fill-rule="evenodd" clip-rule="evenodd" d="M0 8C0 3.58172 3.58172 0 8 0H24C24.8857 0 25.7378 0.143932 26.5341 0.409681C28.0094 0.715415 29.4152 1.44077 30.5601 2.58576L34.5096 6.53523L6.3353 34.7096L2.38582 30.7601C1.60357 29.9778 1.01718 29.0739 0.626655 28.1092C0.223111 27.1533 0 26.1027 0 25V8Z"/>
</mask>
<path fill-rule="evenodd" clip-rule="evenodd" d="M0 8C0 3.58172 3.58172 0 8 0H24C24.8857 0 25.7378 0.143932 26.5341 0.409681C28.0094 0.715415 29.4152 1.44077 30.5601 2.58576L34.5096 6.53523L6.3353 34.7096L2.38582 30.7601C1.60357 29.9778 1.01718 29.0739 0.626655 28.1092C0.223111 27.1533 0 26.1027 0 25V8Z" fill="#57D6FF"/>
<path d="M26.5341 0.409681L25.2679 4.20399L25.4916 4.27862L25.7224 4.32646L26.5341 0.409681ZM30.5601 2.58576L27.7317 5.41418L27.7317 5.41418L30.5601 2.58576ZM34.5096 6.53523L37.338 9.36366L40.1665 6.53523L37.338 3.70681L34.5096 6.53523ZM6.3353 34.7096L3.50687 37.538L6.3353 40.3664L9.16372 37.538L6.3353 34.7096ZM2.38582 30.7601L5.21425 27.9316L5.21425 27.9316L2.38582 30.7601ZM0.626655 28.1092L4.33438 26.6082L4.32324 26.5807L4.31169 26.5534L0.626655 28.1092ZM8 -4C1.37258 -4 -4 1.37258 -4 8H4C4 5.79086 5.79086 4 8 4V-4ZM24 -4H8V4H24V-4ZM27.8003 -3.38462C26.6009 -3.78487 25.3215 -4 24 -4V4C24.4499 4 24.8746 4.07274 25.2679 4.20399L27.8003 -3.38462ZM33.3886 -0.242669C31.6752 -1.95603 29.5617 -3.04789 27.3458 -3.5071L25.7224 4.32646C26.4572 4.47872 27.1551 4.83758 27.7317 5.41418L33.3886 -0.242669ZM37.338 3.70681L33.3886 -0.242669L27.7317 5.41418L31.6812 9.36366L37.338 3.70681ZM9.16372 37.538L37.338 9.36366L31.6812 3.70681L3.50687 31.8811L9.16372 37.538ZM-0.442608 33.5885L3.50687 37.538L9.16373 31.8811L5.21425 27.9316L-0.442608 33.5885ZM-3.08107 29.6101C-2.49302 31.0627 -1.61077 32.4203 -0.442607 33.5885L5.21425 27.9316C4.8179 27.5353 4.52737 27.085 4.33438 26.6082L-3.08107 29.6101ZM-4 25C-4 26.6467 -3.66604 28.2257 -3.05838 29.665L4.31169 26.5534C4.11227 26.081 4 25.5587 4 25H-4ZM-4 8V25H4V8H-4Z" fill="#17191D" mask="url(#path-2-inside-1_54_45)"/>
<circle cx="11.4604" cy="11.7559" r="3.5" fill="#17191D"/>
</svg>
