<svg width="60" height="60" viewBox="0 0 60 60" fill="none" xmlns="http://www.w3.org/2000/svg">
<circle cx="30" cy="30" r="28" fill="white" stroke="#17191D" stroke-width="4"/>
<circle cx="30" cy="30" r="22" fill="#57D6FF"/>
<path fill-rule="evenodd" clip-rule="evenodd" d="M29.9239 30.3375L27.4228 38.0113C27.1038 38.9901 26.1016 39.5551 25.1166 39.3504C24.4946 39.2374 23.9361 38.8322 23.6533 38.2137L20.8119 31.9993H19C17.8954 31.9993 17 31.1039 17 29.9993C17 28.9005 17.8862 28.0086 18.9829 27.9994L17.8317 25.4815C17.3723 24.477 17.8143 23.2903 18.8189 22.831C19.8234 22.3717 21.0101 22.8137 21.4694 23.8182L25.1897 31.9546L27.9581 23.4609C28.2402 22.5953 29.0567 22.0533 29.9231 22.0812C30.7874 22.052 31.6018 22.5925 31.8827 23.4566L34.6445 31.9548L38.3556 23.8149C38.8127 22.8123 39.9953 22.3718 40.9969 22.8311C41.9986 23.2904 42.44 24.4756 41.9829 25.4782L40.8333 27.9996C41.9225 28.0174 42.8 28.9059 42.8 29.9993C42.8 31.1039 41.9046 31.9993 40.8 31.9993H39.0098L36.1749 38.2173C35.8905 38.8411 35.3252 39.2473 34.6974 39.3546C33.7218 39.5478 32.7345 38.9857 32.4193 38.0159L29.9239 30.3375Z" fill="#17191D"/>
</svg>
