<svg width="300" height="300" viewBox="0 0 300 300" fill="none" xmlns="http://www.w3.org/2000/svg">
<path opacity="0.1" d="M119 80L183.097 15L277.001 114.696L227.641 113.095L277.001 164.745H224.832L275.798 222H203.162" stroke="white" stroke-width="15"/>
<line opacity="0.1" x1="180.5" y1="153" x2="180.5" y2="284" stroke="white" stroke-width="15"/>
<path opacity="0.1" fill-rule="evenodd" clip-rule="evenodd" d="M86.4388 210.448L87.0003 283.999L102 283.885L101.425 208.583L129.886 179.219L119.115 168.779L101.262 187.199L101 152.885L86.0003 152.999L86.2686 188.149L68.5113 168.912L57.4893 179.086L86.4388 210.448Z" fill="white"/>
<path opacity="0.1" fill-rule="evenodd" clip-rule="evenodd" d="M38 172.5C38 134.288 64.5243 107 93 107C121.476 107 148 134.288 148 172.5C148 201.234 132.698 224.244 113 233.502V249.666C141.915 239.77 163 208.967 163 172.5C163 128.041 131.66 92 93 92C54.3401 92 23 128.041 23 172.5C23 208.967 44.0851 239.77 73 249.666C73.6626 249.893 74.3293 250.109 75 250.314V234.392C54.3471 225.803 38 202.165 38 172.5Z" fill="white"/>
</svg>
