<svg width="46" height="46" viewBox="0 0 46 46" fill="none" xmlns="http://www.w3.org/2000/svg">
<path fill-rule="evenodd" clip-rule="evenodd" d="M22.5511 3C19.0154 6.18215 10 14.7369 10 26.8059C10 29.1351 10.9597 31.9914 13.1479 34.2708C15.2021 36.4106 18.2762 37.9793 22.4923 38.2051V38.2331C22.6713 38.2331 22.8483 38.2308 23.0234 38.2262C23.1986 38.2308 23.3756 38.2331 23.5545 38.2331V38.2051C27.7706 37.9793 30.8447 36.4106 32.899 34.2708C35.0872 31.9914 36.0469 29.1351 36.0469 26.8059C36.0469 14.7166 26.6416 6.15034 23.1412 3L22.8462 3.32785L22.5511 3ZM22.8552 6.8196C18.9368 10.6357 13 17.6571 13 26.8059C13 28.3766 13.6712 30.484 15.3121 32.1932C16.8465 33.7915 19.297 35.1104 23.0234 35.225C26.7498 35.1104 29.2004 33.7915 30.7348 32.1932C32.3757 30.484 33.0469 28.3766 33.0469 26.8059C33.0469 17.666 26.8616 10.651 22.8552 6.8196Z" fill="white"/>
<path d="M22.9375 16.3242V42.3242" stroke="white" stroke-width="3"/>
</svg>
