<svg width="48" height="60" viewBox="0 0 48 60" fill="none" xmlns="http://www.w3.org/2000/svg">
<mask id="path-1-inside-1_54_37" fill="white">
<path fill-rule="evenodd" clip-rule="evenodd" d="M10 0C4.47715 0 0 4.47715 0 10V57.4466C0 57.5704 0.00224928 57.6937 0.00670921 57.8164C0.0809457 59.8588 2.51061 60.3462 3.97625 58.9219L21.986 41.4197C23.1503 40.2882 25.0034 40.2882 26.1676 41.4197L44.0367 58.7853C45.5126 60.2196 47.9561 59.7113 47.9979 57.6537C47.9993 57.5848 48 57.5158 48 57.4466V10C48 4.47715 43.5229 0 38 0H10Z"/>
</mask>
<path fill-rule="evenodd" clip-rule="evenodd" d="M10 0C4.47715 0 0 4.47715 0 10V57.4466C0 57.5704 0.00224928 57.6937 0.00670921 57.8164C0.0809457 59.8588 2.51061 60.3462 3.97625 58.9219L21.986 41.4197C23.1503 40.2882 25.0034 40.2882 26.1676 41.4197L44.0367 58.7853C45.5126 60.2196 47.9561 59.7113 47.9979 57.6537C47.9993 57.5848 48 57.5158 48 57.4466V10C48 4.47715 43.5229 0 38 0H10Z" fill="white"/>
<path d="M44.0367 58.7853L41.249 61.6538L44.0367 58.7853ZM47.9979 57.6537L43.9987 57.5725L47.9979 57.6537ZM21.986 41.4197L24.7737 44.2882L21.986 41.4197ZM3.97625 58.9219L1.18853 56.0533L3.97625 58.9219ZM4 10C4 6.68629 6.68629 4 10 4V-4C2.26801 -4 -4 2.26802 -4 10H4ZM4 57.4466V10H-4V57.4466H4ZM4.00407 57.6711C4.00137 57.5968 4 57.522 4 57.4466H-4C-4 57.6189 -3.99687 57.7906 -3.99065 57.9617L4.00407 57.6711ZM6.76396 61.7904L24.7737 44.2882L19.1983 38.5511L1.18853 56.0533L6.76396 61.7904ZM23.3799 44.2882L41.249 61.6538L46.8244 55.9167L28.9553 38.5511L23.3799 44.2882ZM44 57.4466C44 57.4887 43.9996 57.5307 43.9987 57.5725L51.9971 57.7349C51.999 57.639 52 57.5429 52 57.4466H44ZM44 10V57.4466H52V10H44ZM38 4C41.3137 4 44 6.68629 44 10H52C52 2.26801 45.732 -4 38 -4V4ZM10 4H38V-4H10V4ZM41.249 61.6538C42.9342 63.2916 45.3292 63.9719 47.5473 63.4039C49.979 62.7813 51.9375 60.6707 51.9971 57.7349L43.9987 57.5725C44.005 57.2654 44.1191 56.7989 44.476 56.3637C44.8163 55.9487 45.2323 55.7386 45.5629 55.654C46.1798 55.496 46.6151 55.7133 46.8244 55.9167L41.249 61.6538ZM24.7737 44.2882C24.3857 44.6654 23.768 44.6654 23.3799 44.2882L28.9553 38.5511C26.2387 35.9111 21.9149 35.9111 19.1983 38.5511L24.7737 44.2882ZM-3.99065 57.9617C-3.8846 60.8795 -1.9125 62.9493 0.503507 63.5507C2.71194 64.1004 5.08912 63.4181 6.76396 61.7904L1.18853 56.0533C1.39773 55.85 1.82727 55.6361 2.4359 55.7876C2.76228 55.8688 3.17371 56.0723 3.51413 56.4773C3.87136 56.9023 3.99285 57.3624 4.00407 57.6711L-3.99065 57.9617Z" fill="#17191D" mask="url(#path-1-inside-1_54_37)"/>
<path d="M7 11.3C7 8.92518 8.92518 7 11.3 7H36.7C39.0748 7 41 8.92518 41 11.3V22H7V11.3Z" fill="#57D6FF"/>
</svg>
