<svg width="24" height="24" viewBox="0 0 24 24" fill="none" xmlns="http://www.w3.org/2000/svg">
<path d="M23.9685 14.5978C23.9439 14.4214 23.7998 14.2001 23.6452 14.0514C23.2024 13.6226 22.229 13.3978 20.7459 13.377C19.7409 13.3667 18.532 13.4531 17.2598 13.6295C16.6905 13.3079 16.1036 12.9551 15.6433 12.5298C14.4027 11.392 13.3696 9.8116 12.7229 8.0721C12.7651 7.90957 12.8003 7.76778 12.8354 7.62253C12.8354 7.62253 13.5312 3.72164 13.3485 2.40059C13.3239 2.22076 13.3063 2.16889 13.2571 2.0271L13.1974 1.87493C13.0076 1.44265 12.6351 0.986167 12.0517 1.01037L11.7073 1H11.7003C11.0467 1 10.5195 1.32853 10.379 1.81615C9.95724 3.3516 10.393 5.65133 11.1837 8.62542L10.9799 9.10957C10.4141 10.4721 9.70422 11.8416 9.07868 13.0485L8.99786 13.2041C8.33718 14.4733 7.73976 15.5523 7.19505 16.4653L6.63629 16.7557C6.59412 16.7765 5.63473 17.2779 5.40982 17.4094C3.50159 18.5333 2.23646 19.8059 2.02561 20.8157C1.95884 21.1408 2.00804 21.5523 2.34892 21.7425L2.89011 22.0123C3.12557 22.1264 3.37508 22.1852 3.6281 22.1852C4.98811 22.1852 6.566 20.5183 8.74132 16.7834C11.2505 15.9811 14.1111 15.3102 16.6167 14.9436C18.525 15.9984 20.8725 16.735 22.3555 16.735C22.619 16.735 22.8475 16.7108 23.0302 16.6624C23.3149 16.5863 23.5538 16.4272 23.7014 16.2128C23.9896 15.7874 24.0458 15.1995 23.9685 14.5978ZM3.33291 21.1719C3.5789 20.5045 4.56289 19.1834 6.01427 18.0145C6.10564 17.9419 6.33055 17.7344 6.53438 17.5408C5.01622 19.9235 4.00061 20.8711 3.33291 21.1719ZM11.9287 1.69165C12.3645 1.69165 12.614 2.77408 12.6351 3.7908C12.6562 4.80752 12.4137 5.51992 12.115 6.04903C11.8655 5.26747 11.746 4.03634 11.746 3.23057C11.746 3.23057 11.7284 1.69165 11.9287 1.69165ZM9.36334 15.573C9.66908 15.037 9.98536 14.4698 10.3087 13.8716C11.0994 12.4018 11.5984 11.2537 11.9674 10.3096C12.7054 11.6306 13.6261 12.7546 14.705 13.6537C14.842 13.7644 14.9861 13.8785 15.1337 13.9926C12.9373 14.418 11.0361 14.9402 9.36334 15.573ZM23.22 15.452C23.0864 15.5315 22.7034 15.5799 22.4574 15.5799C21.6632 15.5799 20.6757 15.2237 19.2946 14.6393C19.8252 14.6013 20.3137 14.5805 20.7495 14.5805C21.5472 14.5805 21.7826 14.5771 22.5663 14.7742C23.3465 14.9713 23.357 15.369 23.22 15.452Z" fill="#111111"/>
</svg>
