<svg width="61" height="61" viewBox="0 0 61 61" fill="none" xmlns="http://www.w3.org/2000/svg">
<mask id="path-1-inside-1_54_83" fill="white">
<path fill-rule="evenodd" clip-rule="evenodd" d="M29.1294 0.749999C29.7068 -0.250001 31.1502 -0.249999 31.7275 0.750001L35.8444 7.8807C36.2824 8.63931 37.0301 9.1686 37.8911 9.3296L44.5756 10.5795C45.8181 10.8118 46.2337 12.3826 45.2688 13.199L40.1429 17.5361C39.4692 18.1062 39.0807 18.9439 39.0807 19.8264L39.0809 27.9081C39.081 29.217 37.5219 29.8981 36.5617 29.0087L32.4695 25.2185C31.3051 24.14 29.5022 24.155 28.3559 25.2528L24.5351 28.9119C23.5812 29.8255 21.9976 29.1494 21.9976 27.8286L21.9978 19.8938C21.9978 18.9848 21.5856 18.1247 20.877 17.5553L15.7196 13.4107C14.7368 12.6209 15.1077 11.0446 16.3396 10.7759L23.054 9.31142C23.8792 9.13141 24.5904 8.61184 25.0127 7.88032L29.1294 0.749999Z"/>
</mask>
<path fill-rule="evenodd" clip-rule="evenodd" d="M29.1294 0.749999C29.7068 -0.250001 31.1502 -0.249999 31.7275 0.750001L35.8444 7.8807C36.2824 8.63931 37.0301 9.1686 37.8911 9.3296L44.5756 10.5795C45.8181 10.8118 46.2337 12.3826 45.2688 13.199L40.1429 17.5361C39.4692 18.1062 39.0807 18.9439 39.0807 19.8264L39.0809 27.9081C39.081 29.217 37.5219 29.8981 36.5617 29.0087L32.4695 25.2185C31.3051 24.14 29.5022 24.155 28.3559 25.2528L24.5351 28.9119C23.5812 29.8255 21.9976 29.1494 21.9976 27.8286L21.9978 19.8938C21.9978 18.9848 21.5856 18.1247 20.877 17.5553L15.7196 13.4107C14.7368 12.6209 15.1077 11.0446 16.3396 10.7759L23.054 9.31142C23.8792 9.13141 24.5904 8.61184 25.0127 7.88032L29.1294 0.749999Z" fill="#57D6FF"/>
<path d="M31.7275 0.750001L35.1916 -1.25V-1.25L31.7275 0.750001ZM29.1294 0.749999L25.6653 -1.25L25.6653 -1.25L29.1294 0.749999ZM44.5756 10.5795L45.3108 6.64763L44.5756 10.5795ZM45.2688 13.199L47.8525 16.2526L45.2688 13.199ZM39.0809 27.9081L35.0809 27.9082V27.9082L39.0809 27.9081ZM36.5617 29.0087L39.2797 26.074L36.5617 29.0087ZM24.5351 28.9119L21.7685 26.023L21.7685 26.023L24.5351 28.9119ZM21.9976 27.8286L25.9976 27.8287L21.9976 27.8286ZM15.7196 13.4107L13.2139 16.5286H13.2139L15.7196 13.4107ZM16.3396 10.7759L15.4872 6.86776L15.4872 6.86776L16.3396 10.7759ZM23.054 9.31142L22.2016 5.40329L23.054 9.31142ZM25.0127 7.88032L28.4768 9.88032L25.0127 7.88032ZM21.9978 19.8938L17.9978 19.8937L21.9978 19.8938ZM32.4695 25.2185L29.7514 28.1531L32.4695 25.2185ZM28.3559 25.2528L25.5893 22.3639L28.3559 25.2528ZM39.0807 19.8264L43.0807 19.8263L39.0807 19.8264ZM35.8444 7.8807L32.3803 9.8807L35.8444 7.8807ZM35.1916 -1.25C33.0747 -4.91666 27.7823 -4.91668 25.6653 -1.25L32.5935 2.75C31.6313 4.41667 29.2256 4.41666 28.2634 2.75L35.1916 -1.25ZM39.3085 5.8807L35.1916 -1.25L28.2634 2.75L32.3803 9.8807L39.3085 5.8807ZM45.3108 6.64763L38.6263 5.39774L37.1559 13.2615L43.8404 14.5113L45.3108 6.64763ZM47.8525 16.2526C51.3907 13.2589 49.8666 7.49948 45.3108 6.64763L43.8404 14.5113C41.7696 14.1241 41.0768 11.5062 42.6851 10.1454L47.8525 16.2526ZM42.7266 20.5897L47.8525 16.2526L42.6851 10.1454L37.5592 14.4826L42.7266 20.5897ZM43.0809 27.908L43.0807 19.8263L35.0807 19.8265L35.0809 27.9082L43.0809 27.908ZM33.8436 31.9433C37.3645 35.2044 43.0811 32.7072 43.0809 27.908L35.0809 27.9082C35.0809 25.7268 37.6793 24.5917 39.2797 26.074L33.8436 31.9433ZM29.7514 28.1531L33.8436 31.9433L39.2797 26.074L35.1876 22.2838L29.7514 28.1531ZM25.5893 22.3639L21.7685 26.023L27.3018 31.8008L31.1226 28.1416L25.5893 22.3639ZM21.7685 26.023C23.3583 24.5005 25.9977 25.6273 25.9976 27.8287L17.9976 27.8285C17.9975 32.6714 23.8041 35.1505 27.3018 31.8008L21.7685 26.023ZM25.9976 27.8287L25.9978 19.8939L17.9978 19.8937L17.9976 27.8285L25.9976 27.8287ZM13.2139 16.5286L18.3714 20.6733L23.3827 14.4373L18.2253 10.2927L13.2139 16.5286ZM15.4872 6.86776C10.9704 7.85291 9.61039 13.6327 13.2139 16.5286L18.2253 10.2927C19.8632 11.609 19.245 14.2362 17.192 14.684L15.4872 6.86776ZM22.2016 5.40329L15.4872 6.86776L17.192 14.684L23.9064 13.2195L22.2016 5.40329ZM25.6653 -1.25L21.5486 5.88032L28.4768 9.88032L32.5935 2.75L25.6653 -1.25ZM23.9064 13.2195C25.832 12.7995 27.4914 11.5872 28.4768 9.88032L21.5486 5.88032C21.6894 5.63649 21.9265 5.46329 22.2016 5.40329L23.9064 13.2195ZM25.9978 19.8939C25.9978 17.7728 25.0361 15.766 23.3827 14.4373L18.3714 20.6733C18.1352 20.4834 17.9978 20.1968 17.9978 19.8937L25.9978 19.8939ZM35.1876 22.2838C32.4706 19.7674 28.2638 19.8025 25.5893 22.3639L31.1226 28.1416C30.7405 28.5076 30.1395 28.5126 29.7514 28.1531L35.1876 22.2838ZM37.5592 14.4826C35.9872 15.8126 35.0807 17.7674 35.0807 19.8265L43.0807 19.8263C43.0807 20.1205 42.9512 20.3997 42.7266 20.5897L37.5592 14.4826ZM32.3803 9.8807C33.4023 11.6508 35.1468 12.8858 37.1559 13.2615L38.6263 5.39774C38.9133 5.45141 39.1625 5.62784 39.3085 5.8807L32.3803 9.8807Z" fill="#17191D" mask="url(#path-1-inside-1_54_83)"/>
<mask id="path-3-inside-2_54_83" fill="white">
<path fill-rule="evenodd" clip-rule="evenodd" d="M10.1982 24.1016C10.7755 23.1016 12.2189 23.1016 12.7962 24.1016L15.5701 28.9061C16.0081 29.6647 16.7558 30.194 17.6168 30.355L21.8497 31.1465C23.0922 31.3788 23.5079 32.9496 22.5429 33.766L19.3085 36.5028C18.6348 37.0728 18.2463 37.9105 18.2463 38.793L18.2464 44.0359C18.2465 45.3448 16.6874 46.0259 15.7272 45.1365L13.5451 43.1154C12.3807 42.037 10.5778 42.052 9.43157 43.1498L7.45811 45.0397C6.5042 45.9533 4.92058 45.2771 4.92061 43.9563L4.92073 38.8561C4.92075 37.947 4.50858 37.087 3.79998 36.5175L0.561401 33.915C-0.421386 33.1252 -0.0504763 31.5489 1.18137 31.2802L5.45981 30.347C6.28509 30.167 6.99625 29.6474 7.41859 28.9159L10.1982 24.1016Z"/>
</mask>
<path fill-rule="evenodd" clip-rule="evenodd" d="M10.1982 24.1016C10.7755 23.1016 12.2189 23.1016 12.7962 24.1016L15.5701 28.9061C16.0081 29.6647 16.7558 30.194 17.6168 30.355L21.8497 31.1465C23.0922 31.3788 23.5079 32.9496 22.5429 33.766L19.3085 36.5028C18.6348 37.0728 18.2463 37.9105 18.2463 38.793L18.2464 44.0359C18.2465 45.3448 16.6874 46.0259 15.7272 45.1365L13.5451 43.1154C12.3807 42.037 10.5778 42.052 9.43157 43.1498L7.45811 45.0397C6.5042 45.9533 4.92058 45.2771 4.92061 43.9563L4.92073 38.8561C4.92075 37.947 4.50858 37.087 3.79998 36.5175L0.561401 33.915C-0.421386 33.1252 -0.0504763 31.5489 1.18137 31.2802L5.45981 30.347C6.28509 30.167 6.99625 29.6474 7.41859 28.9159L10.1982 24.1016Z" fill="white"/>
<path d="M12.7962 24.1016L9.33213 26.1016L9.33213 26.1016L12.7962 24.1016ZM10.1982 24.1016L13.6623 26.1016L13.6623 26.1016L10.1982 24.1016ZM21.8497 31.1465L22.5849 27.2146L22.5849 27.2146L21.8497 31.1465ZM22.5429 33.766L25.1266 36.8196V36.8196L22.5429 33.766ZM18.2464 44.0359L14.2464 44.036V44.036L18.2464 44.0359ZM15.7272 45.1365L13.0091 48.0711L13.0091 48.0711L15.7272 45.1365ZM7.45811 45.0397L10.2248 47.9286L10.2248 47.9286L7.45811 45.0397ZM4.92061 43.9563L8.92062 43.9564L4.92061 43.9563ZM0.561401 33.915L3.06706 30.797L0.561401 33.915ZM1.18137 31.2802L0.328972 27.3721L0.328971 27.3721L1.18137 31.2802ZM5.45981 30.347L4.60741 26.4389L5.45981 30.347ZM7.41859 28.9159L3.95449 26.9159L7.41859 28.9159ZM9.43157 43.1498L6.66492 40.2609L9.43157 43.1498ZM19.3085 36.5028L16.7248 33.4492L19.3085 36.5028ZM18.2463 38.793L22.2463 38.7929L18.2463 38.793ZM15.5701 28.9061L19.0343 26.9061L15.5701 28.9061ZM17.6168 30.355L16.8816 34.2869L17.6168 30.355ZM16.2603 22.1016C14.1434 18.4349 8.85101 18.4349 6.73406 22.1016L13.6623 26.1016C12.7 27.7682 10.2944 27.7682 9.33213 26.1016L16.2603 22.1016ZM19.0343 26.9061L16.2603 22.1016L9.33213 26.1016L12.106 30.9061L19.0343 26.9061ZM22.5849 27.2146L18.352 26.4232L16.8816 34.2869L21.1145 35.0783L22.5849 27.2146ZM25.1266 36.8196C28.6648 33.8259 27.1407 28.0665 22.5849 27.2146L21.1145 35.0783C19.0437 34.6911 18.3509 32.0732 19.9592 30.7124L25.1266 36.8196ZM21.8922 39.5563L25.1266 36.8196L19.9592 30.7124L16.7248 33.4492L21.8922 39.5563ZM22.2464 44.0358L22.2463 38.7929L14.2463 38.7931L14.2464 44.036L22.2464 44.0358ZM13.0091 48.0711C16.53 51.3322 22.2466 48.835 22.2464 44.0358L14.2464 44.036C14.2464 41.8546 16.8448 40.7195 18.4452 42.2018L13.0091 48.0711ZM10.827 46.0501L13.0091 48.0711L18.4452 42.2018L16.2632 40.1808L10.827 46.0501ZM6.66492 40.2609L4.69146 42.1508L10.2248 47.9286L12.1982 46.0386L6.66492 40.2609ZM4.69146 42.1508C6.28131 40.6282 8.92067 41.7551 8.92062 43.9564L0.920615 43.9563C0.920501 48.7992 6.72708 51.2783 10.2248 47.9286L4.69146 42.1508ZM8.92062 43.9564L8.92073 38.8562L0.920734 38.856L0.920615 43.9563L8.92062 43.9564ZM-1.94426 37.0329L1.29432 39.6355L6.30563 33.3996L3.06706 30.797L-1.94426 37.0329ZM0.328971 27.3721C-4.18781 28.3572 -5.54779 34.137 -1.94426 37.0329L3.06706 30.797C4.70502 32.1133 4.08686 34.7405 2.03377 35.1883L0.328971 27.3721ZM4.60741 26.4389L0.328972 27.3721L2.03377 35.1883L6.31221 34.2551L4.60741 26.4389ZM6.73406 22.1016L3.95449 26.9159L10.8827 30.9159L13.6623 26.1016L6.73406 22.1016ZM6.31221 34.2551C8.23786 33.8351 9.89723 32.6228 10.8827 30.9159L3.95449 26.9159C4.09527 26.6721 4.33232 26.4989 4.60741 26.4389L6.31221 34.2551ZM8.92073 38.8562C8.92078 36.735 7.95904 34.7283 6.30563 33.3996L1.29432 39.6355C1.05812 39.4457 0.920727 39.159 0.920734 38.856L8.92073 38.8562ZM16.2632 40.1808C13.5463 37.6644 9.33948 37.6995 6.66492 40.2609L12.1982 46.0386C11.8161 46.4046 11.2152 46.4096 10.827 46.0501L16.2632 40.1808ZM16.7248 33.4492C15.1528 34.7792 14.2462 36.734 14.2463 38.7931L22.2463 38.7929C22.2463 39.0871 22.1168 39.3663 21.8922 39.5563L16.7248 33.4492ZM12.106 30.9061C13.128 32.6762 14.8725 33.9112 16.8816 34.2869L18.352 26.4232C18.639 26.4768 18.8883 26.6533 19.0343 26.9061L12.106 30.9061Z" fill="#17191D" mask="url(#path-3-inside-2_54_83)"/>
<mask id="path-5-inside-3_54_83" fill="white">
<path fill-rule="evenodd" clip-rule="evenodd" d="M47.2509 24.1016C47.8282 23.1016 49.2716 23.1016 49.849 24.1016L52.6229 28.9061C53.0609 29.6647 53.8085 30.194 54.6696 30.355L58.9024 31.1465C60.1449 31.3788 60.5606 32.9496 59.5956 33.766L56.3612 36.5028C55.6875 37.0728 55.299 37.9105 55.299 38.793L55.2992 44.0359C55.2992 45.3448 53.7401 46.0259 52.7799 45.1365L50.5978 43.1154C49.4335 42.037 47.6305 42.052 46.4843 43.1498L44.5108 45.0397C43.5569 45.9533 41.9733 45.2771 41.9733 43.9563L41.9735 38.8561C41.9735 37.947 41.5613 37.087 40.8527 36.5175L37.6141 33.915C36.6313 33.1252 37.0023 31.5489 38.2341 31.2802L42.5125 30.347C43.3378 30.167 44.049 29.6474 44.4713 28.9159L47.2509 24.1016Z"/>
</mask>
<path fill-rule="evenodd" clip-rule="evenodd" d="M47.2509 24.1016C47.8282 23.1016 49.2716 23.1016 49.849 24.1016L52.6229 28.9061C53.0609 29.6647 53.8085 30.194 54.6696 30.355L58.9024 31.1465C60.1449 31.3788 60.5606 32.9496 59.5956 33.766L56.3612 36.5028C55.6875 37.0728 55.299 37.9105 55.299 38.793L55.2992 44.0359C55.2992 45.3448 53.7401 46.0259 52.7799 45.1365L50.5978 43.1154C49.4335 42.037 47.6305 42.052 46.4843 43.1498L44.5108 45.0397C43.5569 45.9533 41.9733 45.2771 41.9733 43.9563L41.9735 38.8561C41.9735 37.947 41.5613 37.087 40.8527 36.5175L37.6141 33.915C36.6313 33.1252 37.0023 31.5489 38.2341 31.2802L42.5125 30.347C43.3378 30.167 44.049 29.6474 44.4713 28.9159L47.2509 24.1016Z" fill="white"/>
<path d="M49.849 24.1016L46.3849 26.1016L46.3849 26.1016L49.849 24.1016ZM47.2509 24.1016L50.715 26.1016L50.715 26.1016L47.2509 24.1016ZM58.9024 31.1465L59.6376 27.2146L59.6376 27.2146L58.9024 31.1465ZM59.5956 33.766L62.1794 36.8196V36.8196L59.5956 33.766ZM55.2992 44.0359L51.2992 44.036V44.036L55.2992 44.0359ZM52.7799 45.1365L50.0618 48.0711L50.0618 48.0711L52.7799 45.1365ZM44.5108 45.0397L47.2775 47.9286L47.2775 47.9286L44.5108 45.0397ZM41.9733 43.9563L45.9733 43.9564L41.9733 43.9563ZM37.6141 33.915L40.1198 30.797L37.6141 33.915ZM38.2341 31.2802L37.3817 27.3721L37.3817 27.3721L38.2341 31.2802ZM42.5125 30.347L41.6601 26.4389L42.5125 30.347ZM44.4713 28.9159L41.0072 26.9159L44.4713 28.9159ZM50.5978 43.1154L53.3159 40.1808L50.5978 43.1154ZM46.4843 43.1498L43.7177 40.2609L46.4843 43.1498ZM56.3612 36.5028L53.7775 33.4492L56.3612 36.5028ZM55.299 38.793L59.299 38.7929L55.299 38.793ZM52.6229 28.9061L56.087 26.9061L52.6229 28.9061ZM54.6696 30.355L53.9344 34.2869L54.6696 30.355ZM53.3131 22.1016C51.1961 18.4349 45.9037 18.4349 43.7868 22.1016L50.715 26.1016C49.7527 27.7682 47.3471 27.7682 46.3849 26.1016L53.3131 22.1016ZM56.087 26.9061L53.3131 22.1016L46.3849 26.1016L49.1588 30.9061L56.087 26.9061ZM59.6376 27.2146L55.4048 26.4232L53.9344 34.2869L58.1673 35.0783L59.6376 27.2146ZM62.1794 36.8196C65.7175 33.8259 64.1934 28.0665 59.6376 27.2146L58.1672 35.0783C56.0965 34.6911 55.4037 32.0732 57.0119 30.7124L62.1794 36.8196ZM58.9449 39.5563L62.1794 36.8196L57.0119 30.7124L53.7775 33.4492L58.9449 39.5563ZM59.2992 44.0358L59.299 38.7929L51.299 38.7931L51.2992 44.036L59.2992 44.0358ZM50.0618 48.0711C53.5827 51.3322 59.2993 48.835 59.2992 44.0358L51.2992 44.036C51.2991 41.8546 53.8975 40.7195 55.498 42.2018L50.0618 48.0711ZM47.8798 46.0501L50.0618 48.0711L55.498 42.2018L53.3159 40.1808L47.8798 46.0501ZM43.7177 40.2609L41.7442 42.1508L47.2775 47.9286L49.251 46.0386L43.7177 40.2609ZM41.7442 42.1508C43.334 40.6282 45.9734 41.7551 45.9733 43.9564L37.9733 43.9563C37.9732 48.7992 43.7798 51.2783 47.2775 47.9286L41.7442 42.1508ZM45.9733 43.9564L45.9735 38.8562L37.9735 38.856L37.9733 43.9563L45.9733 43.9564ZM35.1085 37.0329L38.3471 39.6355L43.3584 33.3996L40.1198 30.797L35.1085 37.0329ZM37.3817 27.3721C32.8649 28.3572 31.5049 34.137 35.1085 37.0329L40.1198 30.797C41.7578 32.1133 41.1396 34.7405 39.0865 35.1883L37.3817 27.3721ZM41.6601 26.4389L37.3817 27.3721L39.0865 35.1883L43.3649 34.2551L41.6601 26.4389ZM43.7868 22.1016L41.0072 26.9159L47.9354 30.9159L50.715 26.1016L43.7868 22.1016ZM43.3649 34.2551C45.2906 33.8351 46.95 32.6228 47.9354 30.9159L41.0072 26.9159C41.148 26.6721 41.3851 26.4989 41.6601 26.4389L43.3649 34.2551ZM45.9735 38.8562C45.9735 36.735 45.0118 34.7283 43.3584 33.3996L38.3471 39.6355C38.1109 39.4457 37.9735 39.159 37.9735 38.856L45.9735 38.8562ZM53.3159 40.1808C50.599 37.6644 46.3922 37.6995 43.7177 40.2609L49.251 46.0386C48.8689 46.4046 48.2679 46.4096 47.8798 46.0501L53.3159 40.1808ZM53.7775 33.4492C52.2055 34.7792 51.299 36.734 51.299 38.7931L59.299 38.7929C59.299 39.0871 59.1695 39.3663 58.9449 39.5563L53.7775 33.4492ZM49.1588 30.9061C50.1807 32.6762 51.9253 33.9112 53.9344 34.2869L55.4048 26.4232C55.6918 26.4768 55.941 26.6533 56.087 26.9061L49.1588 30.9061Z" fill="#17191D" mask="url(#path-5-inside-3_54_83)"/>
<rect x="10" y="49.8691" width="40" height="4" rx="2" fill="#17191D"/>
<rect x="18.165" y="56.6055" width="24" height="4" rx="2" fill="#17191D"/>
</svg>
